<svg t="1720545153046" class="icon" viewBox="0 0 1150 1024" version="1.1" xmlns="http://www.w3.org/2000/svg" p-id="5401" width="200" height="200"><path d="M1136.44045 564.056551l-235.538883 407.971957a103.942983 103.942983 0 0 1-90.010201 51.962986H339.805094c-37.12857 0-71.433157-19.818916-90.010201-51.971492L14.264516 564.065057a103.942983 103.942983 0 0 1 0-103.942983l235.530377-407.954945A103.951489 103.951489 0 0 1 339.805094 0.187131h471.086272c37.12857 0 71.450169 19.801904 90.010201 51.971492l235.538883 407.954945a103.942983 103.942983 0 0 1 0 103.942983" fill="#42D3A5" p-id="5402"></path><path d="M523.398003 169.847258a29.047896 29.047896 0 0 0-26.708753 19.232004L344.968219 611.792069l-49.810975-83.018291a29.056402 29.056402 0 0 0-24.922499-14.119915H0.442311a103.772864 103.772864 0 0 0 13.839217 49.394182l5.052547 8.735634h234.475637l72.896184 121.490805a29.056402 29.056402 0 0 0 52.277707-5.137608L525.754157 280.042131l161.213696 394.770688a29.090426 29.090426 0 0 0 24.437659 17.964614 29.022378 29.022378 0 0 0 27.108534-13.558521l128.865483-206.525011 75.226821 98.35456a29.132956 29.132956 0 0 0 23.085209 11.415015h160.116425l10.632466-18.423937a103.730334 103.730334 0 0 0 13.175751-39.705879H980.058146l-92.000598-120.31698a29.218015 29.218015 0 0 0-24.471683-11.380991 29.03939 29.03939 0 0 0-23.27234 13.643579L719.299055 600.232452 550.906318 187.896932a29.056402 29.056402 0 0 0-27.525327-18.05818z" fill="#FFFFFF" p-id="5403"></path></svg>
